<?xml version="1.0" encoding="iso-8859-1"?>
<!-- Generator: Adobe Illustrator 18.0.0, SVG Export Plug-In . SVG Version: 6.00 Build 0)  -->
<!DOCTYPE svg PUBLIC "-//W3C//DTD SVG 1.1//EN" "http://www.w3.org/Graphics/SVG/1.1/DTD/svg11.dtd">
<svg version="1.1" id="Capa_1" xmlns="http://www.w3.org/2000/svg" xmlns:xlink="http://www.w3.org/1999/xlink" x="0px" y="0px"
	 viewBox="0 0 60 60" style="enable-background:new 0 0 60 60;" xml:space="preserve">
<g>
	<path d="M8.212,49.758c-0.391-0.391-1.023-0.391-1.414,0l-2.5,2.5c-0.856,0.855-1.328,1.995-1.328,3.207
		c0,1.211,0.472,2.351,1.328,3.207S6.293,60,7.505,60c1.211,0,2.351-0.472,3.207-1.328c1.768-1.77,1.768-4.646,0-6.414L8.212,49.758
		z"/>
	<path d="M55.164,10.403c2.243-2.245,2.498-5.845,0.578-8.196C54.598,0.805,52.901,0,51.087,0c-1.606,0-3.112,0.622-4.242,1.751
		l-3.526,3.527c-1.119,1.119-3.069,1.119-4.187,0l-0.583-0.583c-0.839-0.837-2.299-0.837-3.134,0.001L31.48,8.632
		c-0.419,0.419-0.649,0.976-0.649,1.567c0,0.593,0.23,1.149,0.649,1.568l1.968,1.968L18.183,29l-0.999,0.999
		c-1.562,1.562-2.727,3.501-3.395,5.688c-0.258,0.845-0.623,1.655-1.066,2.418c-0.028,0.048-0.048,0.099-0.076,0.146
		c-0.022,0.036-0.05,0.069-0.072,0.105c-0.224,0.363-0.462,0.718-0.724,1.055c-0.289,0.37-0.6,0.723-0.932,1.055l-4.413,4.413
		l5.656,5.656l4.375-4.374c1.354-1.353,3.037-2.355,4.87-2.898c1.289-0.383,2.501-0.979,3.618-1.721
		c0.748-0.496,1.46-1.046,2.097-1.683L37.982,29h0l5.366-5.365l1.967,1.967c0.419,0.42,0.976,0.65,1.568,0.65
		c0.592,0,1.148-0.23,1.567-0.649l3.936-3.936c0.864-0.864,0.864-2.271,0-3.136l-0.581-0.581c-0.56-0.56-0.867-1.303-0.867-2.094
		s0.308-1.534,0.867-2.093L55.164,10.403z M35.153,29H21.011l13.851-13.851l7.071,7.071L35.153,29z"/>
</g>
<g>
</g>
<g>
</g>
<g>
</g>
<g>
</g>
<g>
</g>
<g>
</g>
<g>
</g>
<g>
</g>
<g>
</g>
<g>
</g>
<g>
</g>
<g>
</g>
<g>
</g>
<g>
</g>
<g>
</g>
</svg>
