<?xml version="1.0" standalone="no"?>
<!DOCTYPE svg PUBLIC "-//W3C//DTD SVG 20010904//EN"
 "http://www.w3.org/TR/2001/REC-SVG-20010904/DTD/svg10.dtd">
<svg version="1.0" xmlns="http://www.w3.org/2000/svg"
 width="1500.000000pt" height="1500.000000pt" viewBox="0 0 1500.000000 1500.000000"
 preserveAspectRatio="xMidYMid meet">

<g transform="translate(0.000000,1500.000000) scale(0.100000,-0.100000)"
fill="#000000" stroke="none">
<path d="M7447 9879 c-103 -24 -201 -100 -244 -187 -23 -47 -28 -70 -28 -132
0 -158 96 -277 303 -376 184 -88 211 -116 213 -221 l1 -58 19 40 c23 50 24
126 2 173 -19 40 -48 70 -206 216 -186 170 -215 261 -128 398 38 60 109 107
201 135 l75 22 -85 -1 c-47 0 -102 -4 -123 -9z"/>
<path d="M7545 9791 c-3 -11 -15 -23 -26 -26 -25 -8 -24 -22 1 -30 11 -3 20
-9 20 -13 0 -4 4 -13 9 -20 6 -10 15 -6 39 17 l30 31 -30 30 c-35 35 -35 35
-43 11z"/>
<path d="M7204 9772 c-54 -40 -118 -112 -146 -164 -20 -37 -23 -58 -23 -143 0
-89 3 -106 28 -157 53 -108 169 -183 362 -234 160 -42 215 -81 215 -151 0 -45
14 -35 29 20 11 36 10 50 -2 79 -22 53 -50 74 -194 144 -109 53 -144 77 -196
128 -89 87 -121 156 -121 261 -1 91 19 145 74 208 38 44 28 48 -26 9z"/>
<path d="M7821 9614 c-10 -23 -15 -25 -44 -17 -66 17 -141 9 -191 -21 -45 -26
-136 -128 -136 -153 0 -6 54 -62 121 -125 146 -136 174 -179 174 -263 0 -38
-6 -73 -17 -94 -25 -48 -23 -50 18 -10 57 56 124 162 155 246 l28 78 0 -46 c1
-26 4 -61 7 -78 6 -26 3 -33 -13 -37 -18 -5 -47 -77 -36 -88 7 -6 66 14 80 28
8 7 17 66 23 161 l10 150 -29 29 -30 30 -51 -48 c-61 -57 -109 -80 -143 -67
-32 12 -57 53 -57 94 0 76 66 71 101 -8 11 -25 24 -45 28 -45 20 0 72 60 67
77 -2 10 -14 65 -26 123 -12 57 -22 106 -24 107 -1 2 -8 -9 -15 -23z"/>
<path d="M6986 9453 c-3 -21 -6 -75 -6 -119 0 -251 132 -365 458 -393 111 -10
152 -27 152 -63 0 -34 20 -8 27 35 5 32 1 41 -29 71 -23 23 -53 40 -94 51
-126 35 -221 68 -276 97 -120 63 -196 172 -206 293 -5 73 -16 84 -26 28z"/>
<path d="M7070 9022 c0 -22 133 -141 192 -170 139 -70 308 -64 308 12 0 39
-24 49 -142 57 -127 10 -196 27 -282 72 -79 41 -76 40 -76 29z"/>
<path d="M7449 8607 c-59 -31 -89 -84 -89 -157 0 -73 30 -126 89 -157 57 -30
120 -30 172 -1 47 26 49 40 10 67 -24 18 -31 19 -40 7 -7 -8 -24 -17 -38 -21
-87 -21 -149 101 -88 173 32 39 77 50 111 27 23 -15 26 -15 54 7 16 13 29 26
29 29 1 3 -16 15 -38 27 -52 29 -115 29 -172 -1z"/>
<path d="M7000 8493 c0 -111 3 -132 20 -161 38 -62 138 -81 201 -39 57 37 69
75 69 210 l0 117 -40 0 -40 0 0 -115 c0 -110 -1 -117 -25 -140 -29 -30 -58
-32 -85 -5 -18 18 -20 33 -20 140 l0 120 -40 0 -40 0 0 -127z"/>
<path d="M7740 8450 l0 -170 40 0 40 0 0 65 0 65 70 0 70 0 0 35 0 35 -70 0
-70 0 0 35 0 35 75 0 75 0 0 35 0 35 -115 0 -115 0 0 -170z"/>
<path d="M6677 8086 c-254 -70 -225 -456 36 -492 58 -8 148 18 190 56 31 28
31 30 14 47 -14 14 -21 15 -35 5 -111 -78 -226 -66 -289 30 -24 36 -28 52 -28
112 0 86 25 133 89 171 70 41 144 32 228 -27 14 -10 20 -9 32 7 21 28 17 34
-40 66 -60 33 -133 43 -197 25z"/>
<path d="M7030 7845 l0 -246 28 3 27 3 3 108 3 107 134 0 135 0 0 -110 0 -110
30 0 30 0 0 245 0 245 -30 0 -30 0 0 -110 0 -111 -136 3 -136 3 -2 105 -1 105
-27 3 -28 3 0 -246z"/>
<path d="M7550 7845 l0 -245 103 0 c121 0 186 16 240 61 58 48 81 101 82 184
0 85 -27 142 -92 191 -52 40 -115 54 -238 54 l-95 0 0 -245z m287 153 c80 -53
104 -175 50 -257 -40 -61 -88 -81 -192 -81 l-85 0 0 186 0 186 93 -4 c81 -3
99 -7 134 -30z"/>
<path d="M8090 7845 l0 -245 30 0 30 0 0 95 0 95 65 0 65 0 71 -95 c66 -87 74
-95 105 -95 19 0 34 1 34 3 0 2 -32 46 -70 97 l-71 94 42 20 c55 26 79 67 79
134 0 48 -4 58 -33 87 -44 44 -90 55 -229 55 l-118 0 0 -245z m279 170 c16 -8
34 -28 41 -45 11 -27 11 -37 -4 -66 -22 -48 -65 -64 -171 -64 l-85 0 0 95 0
95 95 0 c64 0 105 -5 124 -15z"/>
<path d="M5560 5440 l0 -130 125 0 c114 0 125 2 135 20 10 19 8 20 -105 20
l-115 0 0 35 0 34 102 3 c70 2 103 7 106 16 3 9 -22 12 -102 12 l-106 0 0 40
0 40 98 0 c86 0 101 3 117 20 18 20 17 20 -118 20 l-137 0 0 -130z"/>
<path d="M5905 5506 l70 -63 -52 -47 c-29 -26 -63 -56 -75 -66 l-23 -19 27 -1
c19 0 46 16 89 55 l61 55 62 -55 c46 -41 69 -55 91 -55 l30 1 -21 17 c-12 10
-47 41 -78 68 l-56 51 69 59 c64 54 68 59 45 62 -18 3 -39 -10 -81 -47 l-56
-50 -49 40 c-26 23 -50 45 -54 50 -3 5 -19 9 -37 9 -31 0 -31 0 38 -64z"/>
<path d="M6190 5440 c0 -123 1 -130 20 -130 18 0 20 7 20 55 l0 55 100 0 100
0 0 -55 c0 -48 2 -55 20 -55 19 0 20 7 20 130 0 123 -1 130 -20 130 -18 0 -20
-7 -20 -55 l0 -55 -100 0 -100 0 0 55 c0 48 -2 55 -20 55 -19 0 -20 -7 -20
-130z"/>
<path d="M6490 5440 c0 -123 1 -130 20 -130 19 0 20 7 20 130 0 123 -1 130
-20 130 -19 0 -20 -7 -20 -130z"/>
<path d="M6576 5554 c-3 -9 -6 -17 -6 -20 0 -2 52 -5 116 -6 99 -3 119 -6 128
-20 8 -13 8 -23 0 -35 -9 -15 -30 -18 -133 -21 l-121 -3 0 -69 0 -70 124 0
c110 0 126 2 150 21 31 24 34 61 7 88 -19 19 -19 20 0 37 28 25 24 68 -7 93
-23 18 -41 21 -139 21 -94 0 -114 -3 -119 -16z m237 -155 c6 -9 7 -24 4 -33
-5 -13 -23 -16 -112 -16 l-105 0 0 35 0 36 101 -3 c81 -2 104 -6 112 -19z"/>
<path d="M6880 5440 c0 -123 1 -130 20 -130 19 0 20 7 20 130 0 123 -1 130
-20 130 -19 0 -20 -7 -20 -130z"/>
<path d="M6952 5558 c-22 -22 -12 -28 53 -28 l65 0 0 -110 c0 -103 1 -110 20
-110 19 0 20 7 20 110 l0 110 60 0 c49 0 61 3 70 20 10 20 8 20 -133 20 -98 0
-147 -4 -155 -12z"/>
<path d="M7445 5561 c-9 -16 -85 -230 -85 -241 0 -6 9 -10 19 -10 16 0 26 20
54 103 31 92 36 100 45 77 47 -116 83 -181 98 -178 20 4 23 9 72 118 l39 85
34 -102 33 -103 46 0 45 0 69 106 c38 57 72 101 76 97 12 -13 100 -153 100
-158 0 -3 -35 -5 -78 -5 -66 0 -82 -3 -97 -20 -18 -20 -17 -20 118 -20 76 0
137 3 136 8 0 4 -37 61 -82 127 -59 86 -88 120 -102 120 -14 0 -43 -35 -104
-124 l-84 -124 -41 116 c-23 64 -47 122 -54 129 -18 18 -35 -3 -77 -102 -21
-47 -40 -88 -44 -93 -4 -4 -28 39 -53 95 -42 96 -66 125 -83 99z"/>
<path d="M8190 5551 c-11 -21 -9 -21 114 -21 134 0 160 -9 154 -53 -5 -36 -44
-47 -165 -47 l-113 0 0 -60 c0 -53 2 -60 20 -60 17 0 20 7 20 45 l0 45 74 0
c73 0 74 0 124 -45 44 -39 56 -45 95 -45 l46 0 3 60 3 60 90 -60 c67 -45 99
-60 125 -60 37 0 35 2 -148 116 l-33 21 98 59 c87 52 95 59 70 62 -20 3 -52
-12 -115 -52 l-87 -55 -3 54 c-3 47 -6 55 -22 55 -19 0 -20 -8 -20 -125 0 -69
-4 -125 -8 -125 -4 0 -28 20 -52 45 -37 37 -41 45 -24 45 30 0 64 41 64 76 0
20 -9 39 -26 55 -24 22 -34 24 -149 27 -117 3 -124 2 -135 -17z"/>
<path d="M8820 5440 l0 -130 125 0 c114 0 125 2 135 20 10 19 8 20 -105 20
l-115 0 0 35 0 34 102 3 c70 2 103 7 106 16 3 9 -22 12 -102 12 l-106 0 0 40
0 40 98 0 c86 0 101 3 117 20 18 20 17 20 -118 20 l-137 0 0 -130z"/>
<path d="M9110 5551 c-11 -21 -9 -21 114 -21 134 0 160 -9 154 -53 -5 -36 -44
-47 -165 -47 l-113 0 0 -60 c0 -53 2 -60 20 -60 17 0 20 7 20 45 l0 45 74 0
c73 0 74 0 124 -45 31 -28 59 -45 75 -45 24 0 22 4 -26 50 -42 40 -48 50 -31
50 30 0 64 41 64 76 0 20 -9 39 -26 55 -24 22 -34 24 -149 27 -117 3 -124 2
-135 -17z"/>
<path d="M4090 4376 c0 -98 9 -128 45 -152 33 -21 142 -30 188 -15 63 21 77
50 77 157 0 87 -1 94 -20 94 -19 0 -20 -7 -20 -90 0 -118 -10 -130 -110 -130
-62 0 -74 3 -95 25 -23 22 -25 32 -25 110 0 78 -2 85 -20 85 -18 0 -20 -7 -20
-84z"/>
<path d="M4427 4454 c-4 -4 -7 -63 -7 -131 0 -116 1 -123 20 -123 19 0 20 7
20 101 l0 100 106 -98 c58 -54 113 -98 122 -98 15 0 17 16 20 128 2 122 2 127
-18 127 -19 0 -20 -6 -20 -101 l0 -100 -105 98 c-104 97 -124 111 -138 97z"/>
<path d="M4730 4330 c0 -123 1 -130 20 -130 19 0 20 7 20 130 0 123 -1 130
-20 130 -19 0 -20 -7 -20 -130z"/>
<path d="M4800 4330 c0 -123 1 -130 20 -130 18 0 20 7 20 55 l0 54 97 3 c66 2
98 7 101 16 3 9 -21 12 -97 12 l-101 0 0 40 0 40 93 0 c81 0 96 3 112 20 18
20 17 20 -113 20 l-132 0 0 -130z"/>
<path d="M5135 4446 c-53 -23 -70 -52 -70 -116 0 -44 5 -63 20 -80 30 -34 77
-50 145 -50 68 0 115 16 145 50 15 17 20 36 20 80 0 65 -17 93 -72 116 -41 18
-149 17 -188 0z m196 -45 c20 -16 24 -29 24 -71 0 -74 -22 -90 -125 -90 -103
0 -125 16 -125 90 0 74 22 90 125 90 62 0 83 -4 101 -19z"/>
<path d="M5420 4441 c-11 -21 -9 -21 114 -21 134 0 160 -9 154 -53 -5 -36 -44
-47 -165 -47 l-113 0 0 -60 c0 -53 2 -60 20 -60 17 0 20 7 20 45 l0 45 74 0
c73 0 74 0 124 -45 42 -38 57 -45 90 -45 l40 0 35 103 c31 92 36 100 45 77 47
-116 83 -181 98 -178 20 4 23 9 72 118 l39 85 34 -102 c29 -90 36 -103 56
-103 22 0 22 1 -19 118 -22 64 -47 124 -54 132 -20 21 -35 2 -79 -100 -21 -47
-40 -88 -44 -93 -4 -4 -28 39 -53 95 -62 141 -70 139 -127 -20 l-44 -123 -44
43 c-36 35 -41 44 -26 46 61 12 83 90 37 133 -24 22 -34 24 -149 27 -117 3
-124 2 -135 -17z"/>
<path d="M6310 4441 c-11 -21 -9 -21 114 -21 134 0 160 -9 154 -53 -5 -36 -44
-47 -165 -47 l-113 0 0 -60 c0 -53 2 -60 20 -60 17 0 20 7 20 45 l0 45 74 0
c73 0 74 0 124 -45 l50 -45 151 0 c140 0 151 1 161 20 10 19 8 20 -105 20
l-115 0 0 35 0 34 102 3 c70 2 103 7 106 16 3 9 -22 12 -102 12 l-106 0 0 40
0 40 98 0 c86 0 101 3 117 20 18 20 17 20 -118 20 l-137 0 0 -125 c0 -69 -4
-125 -8 -125 -4 0 -28 20 -52 45 -37 37 -41 45 -24 45 30 0 64 41 64 76 0 20
-9 39 -26 55 -24 22 -34 24 -149 27 -117 3 -124 2 -135 -17z"/>
<path d="M6946 4439 c-19 -15 -26 -30 -26 -54 0 -57 34 -75 144 -75 104 0 140
-14 120 -47 -10 -15 -28 -18 -126 -21 -100 -2 -118 -5 -133 -22 -18 -20 -17
-20 117 -20 122 0 138 2 162 21 17 13 26 30 26 47 0 56 -33 72 -145 72 -92 0
-125 10 -125 38 0 35 21 42 132 42 97 0 108 2 118 20 10 20 8 20 -113 20 -111
0 -127 -2 -151 -21z"/>
<path d="M7325 4446 c-53 -23 -70 -52 -70 -116 0 -44 5 -63 20 -80 30 -34 77
-50 145 -50 68 0 115 16 145 50 15 17 20 36 20 80 0 65 -17 93 -72 116 -41 18
-149 17 -188 0z m196 -45 c20 -16 24 -29 24 -71 0 -74 -22 -90 -125 -90 -103
0 -125 16 -125 90 0 74 22 90 125 90 62 0 83 -4 101 -19z"/>
<path d="M7600 4376 c0 -98 9 -128 45 -152 33 -21 142 -30 188 -15 63 21 77
50 77 157 0 87 -1 94 -20 94 -19 0 -20 -7 -20 -90 0 -118 -10 -130 -110 -130
-62 0 -74 3 -95 25 -23 22 -25 32 -25 110 0 78 -2 85 -20 85 -18 0 -20 -7 -20
-84z"/>
<path d="M7940 4441 c-11 -21 -9 -21 114 -21 134 0 160 -9 154 -53 -5 -36 -44
-47 -165 -47 l-113 0 0 -60 c0 -53 2 -60 20 -60 17 0 20 7 20 45 l0 45 74 0
c73 0 74 0 124 -45 31 -28 59 -45 75 -45 24 0 22 4 -26 50 -42 40 -48 50 -31
50 30 0 64 41 64 76 0 20 -9 39 -26 55 -24 22 -34 24 -149 27 -117 3 -124 2
-135 -17z"/>
<path d="M8333 4445 c-95 -41 -95 -183 0 -228 42 -21 196 -24 215 -5 24 24 10
28 -89 28 -98 0 -101 1 -130 29 -20 20 -29 39 -29 61 0 22 9 41 29 61 28 28
33 29 120 29 80 0 92 2 101 20 10 19 8 20 -87 20 -61 -1 -110 -6 -130 -15z"/>
<path d="M8570 4330 l0 -130 125 0 c114 0 125 2 135 20 10 19 8 20 -105 20
l-115 0 0 35 0 34 102 3 c70 2 103 7 106 16 3 9 -22 12 -102 12 l-106 0 0 40
0 40 98 0 c86 0 101 3 117 20 18 20 17 20 -118 20 l-137 0 0 -130z"/>
<path d="M8980 4441 c-11 -21 -9 -21 114 -21 134 0 160 -9 154 -53 -5 -36 -44
-47 -165 -47 l-113 0 0 -60 c0 -53 2 -60 20 -60 17 0 20 7 20 45 l0 45 74 0
c73 0 74 0 124 -45 31 -28 59 -45 75 -45 24 0 22 4 -26 50 -42 40 -48 50 -31
50 30 0 64 41 64 76 0 20 -9 39 -26 55 -24 22 -34 24 -149 27 -117 3 -124 2
-135 -17z"/>
<path d="M9375 4446 c-53 -23 -70 -52 -70 -116 0 -44 5 -63 20 -80 30 -34 77
-50 145 -50 68 0 115 16 145 50 15 17 20 36 20 80 0 65 -17 93 -72 116 -41 18
-149 17 -188 0z m196 -45 c20 -16 24 -29 24 -71 0 -74 -22 -90 -125 -90 -103
0 -125 16 -125 90 0 74 22 90 125 90 62 0 83 -4 101 -19z"/>
<path d="M9650 4376 c0 -98 9 -128 45 -152 33 -21 142 -30 188 -15 63 21 77
50 77 157 0 87 -1 94 -20 94 -19 0 -20 -7 -20 -90 0 -118 -10 -130 -110 -130
-62 0 -74 3 -95 25 -23 22 -25 32 -25 110 0 78 -2 85 -20 85 -18 0 -20 -7 -20
-84z"/>
<path d="M9982 4448 c-22 -22 -12 -28 53 -28 l65 0 0 -110 c0 -103 1 -110 20
-110 19 0 20 7 20 110 l0 110 60 0 c46 0 61 4 69 18 8 12 10 -19 11 -110 l0
-128 125 0 c114 0 125 2 135 20 10 19 8 20 -105 20 l-115 0 0 35 0 34 102 3
c70 2 103 7 106 16 3 9 -22 12 -102 12 l-106 0 0 40 0 40 98 0 c86 0 101 3
117 20 18 20 17 20 -261 20 -205 0 -283 -3 -292 -12z"/>
<path d="M10570 4441 c-11 -21 -9 -21 114 -21 134 0 160 -9 154 -53 -5 -36
-44 -47 -165 -47 l-113 0 0 -60 c0 -53 2 -60 20 -60 17 0 20 7 20 45 l0 45 74
0 c73 0 74 0 124 -45 31 -28 59 -45 75 -45 24 0 22 4 -26 50 -42 40 -48 50
-31 50 30 0 64 41 64 76 0 20 -9 39 -26 55 -24 22 -34 24 -149 27 -117 3 -124
2 -135 -17z"/>
<path d="M3365 3785 c-5 -2 -23 -6 -38 -9 -46 -11 -114 -81 -136 -142 -17 -43
-297 -840 -677 -1922 l-53 -152 170 2 171 3 307 878 c169 483 311 878 315 878
5 0 176 -379 381 -841 204 -463 384 -858 399 -877 38 -47 86 -66 167 -65 81 0
139 27 173 80 14 20 180 388 369 817 190 429 357 807 371 840 20 44 29 56 35
45 5 -8 145 -408 311 -887 l303 -873 173 0 173 0 -73 213 c-348 1005 -640
1847 -651 1873 -17 41 -71 101 -108 121 -49 25 -139 20 -192 -11 -25 -15 -53
-39 -62 -53 -10 -14 -196 -418 -413 -897 -218 -479 -401 -870 -406 -868 -5 1
-188 394 -406 874 -420 922 -426 934 -502 957 -42 13 -89 20 -101 16z"/>
<path d="M200 2660 l0 -1100 1058 0 1057 1 110 141 c61 78 112 145 113 150 2
4 -444 8 -992 8 l-996 0 0 340 0 340 838 0 839 0 96 125 c53 68 97 127 97 130
0 3 -421 5 -935 5 l-935 0 0 330 0 330 874 0 874 0 68 88 c37 48 90 115 117
150 l49 62 -1166 0 -1166 0 0 -1100z"/>
<path d="M6220 3148 c0 -627 7 -797 37 -916 95 -382 376 -592 908 -678 136
-21 584 -31 739 -15 292 31 534 119 700 256 113 94 215 263 256 423 33 130 39
291 40 940 l0 602 -180 0 -179 0 -3 -737 c-3 -668 -5 -744 -21 -798 -70 -240
-223 -348 -562 -397 -136 -19 -560 -16 -708 5 -238 35 -405 104 -512 212 -69
70 -104 130 -136 235 -23 75 -23 80 -27 778 l-3 702 -174 0 -175 0 0 -612z"/>
<path d="M9232 3617 c-61 -80 -112 -148 -112 -151 0 -3 385 -6 855 -6 537 0
892 -4 953 -11 273 -30 432 -111 504 -257 31 -63 33 -72 33 -177 0 -100 -3
-115 -27 -160 -79 -150 -285 -247 -585 -274 -76 -7 -421 -11 -932 -11 l-811 0
0 -505 0 -505 175 0 175 0 0 365 0 365 638 0 638 0 394 -365 394 -365 235 0
c129 0 232 2 230 4 -177 154 -885 782 -887 787 -2 4 18 11 45 14 443 60 699
323 680 700 -18 355 -259 581 -712 667 -104 19 -153 21 -940 25 l-830 5 -113
-145z"/>
<path d="M12182 3617 c-61 -80 -112 -148 -112 -151 0 -3 385 -6 855 -6 537 0
892 -4 953 -11 273 -30 432 -111 504 -257 31 -63 33 -72 33 -177 0 -100 -3
-115 -27 -160 -79 -150 -285 -247 -585 -274 -76 -7 -421 -11 -932 -11 l-811 0
0 -505 0 -505 175 0 175 0 0 365 0 365 638 0 638 0 394 -365 394 -365 235 0
c129 0 232 2 230 4 -177 154 -885 782 -887 787 -2 4 18 11 45 14 443 60 699
323 680 700 -18 355 -259 581 -712 667 -104 19 -153 21 -940 25 l-830 5 -113
-145z"/>
</g>
</svg>
